<?xml version="1.0" encoding="utf-8"?>
<!-- Generator: Adobe Illustrator 17.1.0, SVG Export Plug-In . SVG Version: 6.00 Build 0)  -->
<!DOCTYPE svg PUBLIC "-//W3C//DTD SVG 1.1//EN" "http://www.w3.org/Graphics/SVG/1.1/DTD/svg11.dtd">
<svg version="1.1" id="Layer_1" xmlns="http://www.w3.org/2000/svg" xmlns:xlink="http://www.w3.org/1999/xlink" x="0px" y="0px"
	 viewBox="0 0 268.6 214.9" style="enable-background:new 0 0 268.6 214.9;" xml:space="preserve">
<style type="text/css">
	.st0{fill:#A2A0A0;}
	.st1{fill:#293881;}
	.st2{fill:#CA2127;}
</style>
<g>
	<path class="st0" d="M163.5,204.4l-4.1,10.6l-3.6-8.1l-3.6,8.1l-4.1-10.6h1.2l3,7.8l3.5-8l3.5,8l3-7.8H163.5L163.5,204.4z
		 M173.3,214.7h-1.2v-10.3h1.2V214.7L173.3,214.7z M192.4,214.9l-8.2-8v7.8h-1.1v-10.5l8.2,8v-7.8h1.1V214.9L192.4,214.9z
		 M210.3,209.5c0,1.6-0.6,2.8-1.7,3.8c-1.1,0.9-2.6,1.4-4.4,1.4h-2.1v-10.3h2.2c1.8,0,3.3,0.5,4.3,1.4
		C209.8,206.7,210.3,208,210.3,209.5L210.3,209.5z M209.2,209.5c0-1.3-0.5-2.3-1.4-3c-0.9-0.7-2.1-1.1-3.7-1.1h-0.9v8.3h0.8
		c1.6,0,2.8-0.4,3.7-1.1C208.7,211.9,209.2,210.8,209.2,209.5L209.2,209.5z M230.5,209.5c0,1.5-0.6,2.7-1.7,3.8
		c-1.1,1.1-2.5,1.6-4,1.6c-1.6,0-2.9-0.5-4-1.6c-1.1-1.1-1.7-2.3-1.7-3.8c0-1.5,0.6-2.7,1.7-3.8c1.1-1.1,2.5-1.6,4-1.6
		c1.6,0,2.9,0.5,4,1.6C230,206.8,230.5,208.1,230.5,209.5L230.5,209.5z M229.3,209.5c0-1.2-0.4-2.2-1.3-3.1
		c-0.9-0.8-1.9-1.3-3.2-1.3c-1.3,0-2.3,0.4-3.2,1.3c-0.9,0.8-1.3,1.9-1.3,3.1c0,1.2,0.4,2.2,1.3,3.1c0.9,0.8,1.9,1.3,3.2,1.3
		c1.3,0,2.3-0.4,3.2-1.3C228.9,211.8,229.3,210.8,229.3,209.5L229.3,209.5z M253.7,204.4l-4.1,10.6l-3.6-8.1l-3.6,8.1l-4.1-10.6h1.2
		l3,7.8l3.5-8l3.5,8l3-7.8H253.7L253.7,204.4z M268.3,211.8c0,0.9-0.3,1.6-1,2.2c-0.7,0.6-1.5,0.9-2.5,0.9c-0.8,0-1.5-0.2-2.1-0.7
		c-0.6-0.5-1-1.2-1.2-2l1.1-0.3c0.1,0.6,0.3,1,0.8,1.4c0.4,0.4,0.9,0.5,1.6,0.5c0.6,0,1.1-0.2,1.6-0.6c0.4-0.4,0.7-0.9,0.7-1.5
		c0-0.5-0.2-0.9-0.5-1.2c-0.3-0.3-0.9-0.6-1.7-0.9c-1-0.4-1.7-0.8-2.1-1.2c-0.5-0.4-0.7-1-0.7-1.6c0-0.8,0.3-1.4,0.9-1.9
		c0.6-0.5,1.3-0.8,2.2-0.8c1.2,0,2.1,0.5,2.8,1.5l-0.9,0.5c-0.4-0.7-1.1-1-1.9-1c-0.5,0-1,0.2-1.4,0.5c-0.4,0.3-0.6,0.7-0.6,1.1
		c0,0.4,0.2,0.7,0.5,1c0.3,0.3,0.9,0.5,1.6,0.8c1.1,0.4,1.9,0.9,2.3,1.3C268.1,210.4,268.3,211,268.3,211.8L268.3,211.8z
		 M154.3,189.9h-4v3.2h3.8v1h-3.8v5.2h-1.2v-10.3h5.1V189.9L154.3,189.9z M174.1,194.1c0,1.5-0.6,2.7-1.7,3.8
		c-1.1,1.1-2.5,1.6-4,1.6c-1.6,0-2.9-0.5-4-1.6c-1.1-1.1-1.7-2.3-1.7-3.8c0-1.5,0.6-2.7,1.7-3.8c1.1-1.1,2.5-1.6,4-1.6
		c1.6,0,2.9,0.5,4,1.6C173.6,191.4,174.1,192.6,174.1,194.1L174.1,194.1z M172.9,194.1c0-1.2-0.4-2.2-1.3-3.1
		c-0.9-0.8-1.9-1.3-3.2-1.3c-1.3,0-2.3,0.4-3.2,1.3c-0.9,0.8-1.3,1.9-1.3,3.1c0,1.2,0.4,2.2,1.3,3.1c0.9,0.8,1.9,1.3,3.2,1.3
		c1.3,0,2.3-0.4,3.2-1.3C172.5,196.3,172.9,195.3,172.9,194.1L172.9,194.1z M189.7,199.2h-1.4l-3.3-4.5h-0.5v4.5h-1.2v-10.3h2
		c1.2,0,2.1,0.3,2.8,0.8c0.7,0.5,1,1.2,1,2.1c0,0.7-0.2,1.4-0.7,1.9c-0.5,0.5-1.2,0.9-2.1,0.9L189.7,199.2L189.7,199.2z
		 M187.9,191.8c0-1.3-0.9-1.9-2.8-1.9h-0.7v3.9h0.8C187,193.8,187.9,193.1,187.9,191.8L187.9,191.8z M216.8,188.9l-3.6,5.9v4.5H212
		v-4.5l-3.6-5.9h1.3l2.9,4.7l2.9-4.7H216.8L216.8,188.9z M235.6,194.1c0,1.5-0.6,2.7-1.7,3.8c-1.1,1.1-2.5,1.6-4,1.6
		c-1.6,0-2.9-0.5-4-1.6c-1.1-1.1-1.7-2.3-1.7-3.8c0-1.5,0.6-2.7,1.7-3.8c1.1-1.1,2.5-1.6,4-1.6c1.6,0,2.9,0.5,4,1.6
		C235,191.4,235.6,192.6,235.6,194.1L235.6,194.1z M234.4,194.1c0-1.2-0.4-2.2-1.3-3.1c-0.9-0.8-1.9-1.3-3.2-1.3
		c-1.3,0-2.3,0.4-3.2,1.3c-0.9,0.8-1.3,1.9-1.3,3.1c0,1.2,0.4,2.2,1.3,3.1c0.9,0.8,1.9,1.3,3.2,1.3c1.3,0,2.3-0.4,3.2-1.3
		C233.9,196.3,234.4,195.3,234.4,194.1L234.4,194.1z M252.5,195.6c0,1.2-0.4,2.1-1.1,2.8c-0.7,0.7-1.7,1-2.8,1c-1.2,0-2.1-0.3-2.8-1
		c-0.7-0.7-1.1-1.6-1.1-2.8v-6.7h1.2v6.6c0,1,0.2,1.7,0.7,2.2c0.5,0.5,1.2,0.8,2,0.8c1.8,0,2.8-1,2.8-2.9v-6.6h1.2V195.6
		L252.5,195.6z M268.6,199.2h-1.4l-3.3-4.5h-0.5v4.5h-1.2v-10.3h2c1.2,0,2.1,0.3,2.8,0.8c0.7,0.5,1,1.2,1,2.1c0,0.7-0.2,1.4-0.7,1.9
		c-0.5,0.5-1.2,0.9-2.1,0.9L268.6,199.2L268.6,199.2z M266.8,191.8c0-1.3-0.9-1.9-2.8-1.9h-0.7v3.9h0.8
		C265.9,193.8,266.8,193.1,266.8,191.8L266.8,191.8z M159.4,179.1c0,1.4-0.5,2.6-1.5,3.5c-1,0.9-2.2,1.4-3.7,1.4
		c-1.6,0-2.9-0.5-4-1.5c-1.1-1-1.7-2.3-1.7-3.8c0-1.5,0.6-2.7,1.7-3.8c1.1-1.1,2.5-1.6,4-1.6c0.9,0,1.8,0.2,2.6,0.6
		c0.8,0.4,1.4,0.9,2,1.5l-0.8,0.7c-1-1.2-2.2-1.8-3.7-1.8c-1.2,0-2.3,0.4-3.2,1.3c-0.9,0.9-1.3,1.9-1.3,3.1c0,1.2,0.4,2.3,1.3,3.1
		c0.9,0.8,1.9,1.2,3.1,1.2c1,0,1.9-0.3,2.7-0.9c0.8-0.7,1.2-1.4,1.2-2.4h-3.3v-1h4.5V179.1L159.4,179.1z M179.6,178.6
		c0,1.5-0.6,2.7-1.7,3.8c-1.1,1.1-2.5,1.6-4,1.6c-1.6,0-2.9-0.5-4-1.6c-1.1-1.1-1.7-2.3-1.7-3.8c0-1.5,0.6-2.7,1.7-3.8
		c1.1-1.1,2.5-1.6,4-1.6c1.6,0,2.9,0.5,4,1.6C179,175.9,179.6,177.1,179.6,178.6L179.6,178.6z M178.4,178.6c0-1.2-0.4-2.2-1.3-3.1
		c-0.9-0.8-1.9-1.3-3.2-1.3c-1.3,0-2.3,0.4-3.2,1.3c-0.9,0.8-1.3,1.9-1.3,3.1c0,1.2,0.4,2.2,1.3,3.1c0.9,0.8,1.9,1.3,3.2,1.3
		c1.3,0,2.3-0.4,3.2-1.3C177.9,180.8,178.4,179.8,178.4,178.6L178.4,178.6z M199.6,178.6c0,1.5-0.6,2.7-1.7,3.8
		c-1.1,1.1-2.5,1.6-4,1.6c-1.6,0-2.9-0.5-4-1.6c-1.1-1.1-1.7-2.3-1.7-3.8c0-1.5,0.6-2.7,1.7-3.8c1.1-1.1,2.5-1.6,4-1.6
		c1.6,0,2.9,0.5,4,1.6C199,175.9,199.6,177.1,199.6,178.6L199.6,178.6z M198.4,178.6c0-1.2-0.4-2.2-1.3-3.1
		c-0.9-0.8-1.9-1.3-3.2-1.3c-1.3,0-2.3,0.4-3.2,1.3c-0.9,0.8-1.3,1.9-1.3,3.1c0,1.2,0.4,2.2,1.3,3.1c0.9,0.8,1.9,1.3,3.2,1.3
		c1.3,0,2.3-0.4,3.2-1.3C198,180.8,198.4,179.8,198.4,178.6L198.4,178.6z M217,178.6c0,1.6-0.6,2.8-1.7,3.8
		c-1.1,0.9-2.6,1.4-4.4,1.4h-2.1v-10.3h2.2c1.8,0,3.3,0.5,4.3,1.4C216.4,175.8,217,177,217,178.6L217,178.6z M215.8,178.6
		c0-1.3-0.4-2.3-1.4-3c-0.9-0.7-2.1-1.1-3.7-1.1h-0.9v8.3h0.8c1.6,0,2.8-0.4,3.7-1.1C215.4,180.9,215.8,179.9,215.8,178.6
		L215.8,178.6z M232.5,180.8c0,0.9-0.3,1.6-1,2.2c-0.7,0.6-1.5,0.9-2.5,0.9c-0.8,0-1.5-0.2-2.1-0.7c-0.6-0.5-1-1.2-1.2-2l1.1-0.3
		c0.1,0.6,0.3,1,0.8,1.4c0.4,0.4,0.9,0.5,1.6,0.5c0.6,0,1.1-0.2,1.6-0.6c0.4-0.4,0.7-0.9,0.7-1.5c0-0.5-0.2-0.9-0.5-1.2
		c-0.3-0.3-0.9-0.6-1.7-0.9c-1-0.4-1.7-0.8-2.1-1.2c-0.5-0.4-0.7-1-0.7-1.6c0-0.8,0.3-1.4,0.9-1.9c0.6-0.5,1.3-0.7,2.2-0.7
		c1.2,0,2.1,0.5,2.8,1.5l-0.9,0.5c-0.4-0.7-1.1-1-1.9-1c-0.5,0-1,0.2-1.4,0.5c-0.4,0.3-0.6,0.7-0.6,1.1c0,0.4,0.2,0.7,0.5,1
		c0.3,0.3,0.9,0.5,1.6,0.8c1.1,0.4,1.9,0.9,2.3,1.3C232.2,179.5,232.5,180.1,232.5,180.8L232.5,180.8z"/>
	<path class="st1" d="M220,39.4l0,20.3c0,7.6-0.4,19.7,4.8,25.3l22,23.8c2.6,2.8,1.7,6.2,1.7,10.3l0.1,21.7c0,5.5,0.1,9.1-4.6,9.1
		c-4.8,0-4.6-3.7-4.6-9.2V112h-20.5l0.2,27.1c0.1,17.9,6.9,23.9,24.3,23.9c23,0,24.6-0.8,24.8-18.7l0.2-28.7
		c0.1-11.2-1.2-15.7-8.4-23.2l-18-18.8c-2.5-2.6-2.2-14.4-2.2-20.5l-0.1-11.1c0-5.5-0.4-10.9,4.3-10.9c4.8,0,4.4,4.8,4.4,10.3
		l0.2,23.2h19.7l0.3-24.2c0.2-19.2-7.5-22.2-24.9-22.2C226.3,18.1,220,21.5,220,39.4L220,39.4z M192.9,1.7h-3.6v12.9h-1.5V1.7h-3.6
		V0.3h8.7V1.7L192.9,1.7z M204,13.5c-1.3,0.8-2.5,1.2-3.9,1.2c-2.3,0-4.2-0.7-5.6-2.1c-1.4-1.3-2-3.1-2-5.3c0-2.1,0.7-3.9,2.2-5.3
		c1.4-1.4,3.2-2.1,5.3-2.1c1.5,0,2.9,0.4,3.9,1.2v1.9c-1.1-1.1-2.5-1.7-4.1-1.7c-1.6,0-3,0.6-4.1,1.7c-1.2,1.1-1.7,2.6-1.7,4.3
		c0,1.8,0.6,3.2,1.7,4.4c1.1,1.1,2.5,1.6,4.1,1.6c1.6,0,2.9-0.6,4.1-1.7V13.5L204,13.5z M0,19.5v141.3h24.3
		c20.1,0,25.5-7.6,25.5-26.1v-28.9c0-12-3.3-15.5-16.9-16.6v-0.8c13.4-2.7,16.7-12.6,16.7-24.2V45.6c0-18.3-4.9-26.1-25.3-26.1H0
		L0,19.5z M20.5,94.7h4.4c5.2,0,4.9,2.9,4.9,9.2v30.6c0,6.3-0.1,12.8-5.2,12.8h-4.4L20.5,94.7L20.5,94.7z M30.1,68.2
		c0,6.3-0.3,12.4-5.4,12.4h-4.4l-0.2-47h4.4c5.2,0,5.6,5.2,5.6,11.5V68.2L30.1,68.2z M60.4,160.8h20.3l3.2-39.6l12.9,0l3.1,39.6
		h20.5L105.4,19.5H76.8L60.4,160.8L60.4,160.8z M84.4,108.2l5.7-70.5h1l5.3,70.5H84.4L84.4,108.2z M204.1,160.8V19.5h-20.5v141.3
		H204.1L204.1,160.8z"/>
	<polygon class="st2" points="128,160.8 171.5,160.8 171.4,147.2 147.1,147.3 171,36.2 171,19.5 128.6,19.5 128,32.9 149.7,32.9 
		128,144.3 128,160.8 	"/>
	<path class="st0" d="M0.4,173.2h42.8h0.4v0.4v41v0.4h-0.4H0.4H0v-0.4v-41v-0.4H0.4L0.4,173.2z M96.7,213.6l21.1-39.5H96.7V213.6
		L96.7,213.6z M119,174l19.7,39.1V174H119L119,174z M138.4,214.2l-20-39.6l-21.1,39.6H138.4L138.4,214.2z M89.6,214.2L48.8,196v18.2
		H89.6L89.6,214.2z M48.8,194.7L90,174H48.8V194.7L48.8,194.7z M90.8,174.5l-41.5,20.8l41.5,18.5V174.5L90.8,174.5z M96.3,173.2
		h42.8h0.4v0.4v41v0.4h-0.4H96.3h-0.4v-0.4v-41v-0.4H96.3L96.3,173.2z M48.4,173.2h42.8h0.4v0.4v41v0.4h-0.4H48.4H48v-0.4v-41v-0.4
		H48.4L48.4,173.2z M42.5,214.2L35.1,199L2.2,214.2H42.5L42.5,214.2z M0.8,213.1l16.9-30.2l-16.9-8.2V213.1L0.8,213.1z M1.5,174
		l16.6,8.1l4.5-8.1H1.5L1.5,174z M23.9,174l6.9,14.3l12,5.9V174H23.9L23.9,174z M42.8,195.5l-7,3.2l7,14.4V195.5L42.8,195.5z
		 M34.8,198.3l-4.5-9.4l-11.8-5.8l-17,30.6L34.8,198.3L34.8,198.3z M29.6,187.8l-6.4-13.3l-4.4,8L29.6,187.8L29.6,187.8z
		 M31.4,189.5l4.1,8.5l6.8-3.1L31.4,189.5L31.4,189.5z"/>
</g>
</svg>
